<svg xmlns="http://www.w3.org/2000/svg" viewBox="0 0 29.7 29.7">
  <path d="M23.9 29.7c-1.2 0-2.7-.3-4.4-.9-3.6-1.4-7.5-4-11-7.6a32.8 32.8 0 0 1-7.6-11C-.3 7-.3 4.2 1 3l.6-.5c1-1.2 2.4-2.6 4-2.5C6.7 0 7.8.8 9 2.2c3.4 4.2 1.8 5.7 0 7.5l-.2.3c-.3.3-.9 1.6 4.2 6.7 1.7 1.7 3 2.9 4.2 3.6.7.5 2 1.2 2.5.7l.4-.3c1.7-1.8 3.2-3.3 7.4 0 1.5 1.2 2.2 2.3 2.2 3.5.1 1.7-1.2 3-2.4 4l-.6.6c-.6.6-1.6 1-2.8 1zM5.4 1C4.2 1 3.1 2.1 2.2 3.1l-.6.6C.7 4.7.8 7 2 10c1.3 3.4 3.9 7.2 7.3 10.6 3.4 3.5 7.2 6 10.7 7.4 2.8 1 5.2 1.1 6.1.2l.6-.6c1-1 2.2-2 2.1-3.3 0-.8-.6-1.7-1.8-2.7-3.5-2.8-4.5-1.8-6.1-.1l-.4.3c-.7.8-2 .6-3.7-.5-1.2-.8-2.7-2-4.4-3.8-4.2-4.2-5.6-6.8-4.3-8.1l.4-.3C10 7.3 11 6.3 8.2 2.8 7.2 1.7 6.3 1 5.5 1z"/>
</svg>
